<svg xmlns="http://www.w3.org/2000/svg" width="414.868" height="415.314" viewBox="0 0 414.868 415.314">
  <g id="Page-1" transform="translate(-0.068 -0.006)">
    <path id="Shape" d="M40.548,308.244.8,82.567a50.134,50.134,0,0,1-.716-6.589A51.259,51.259,0,0,1,43.126,24.2L119.832,10.66l-2.077,297.584Z" transform="translate(0 65.648)" fill="#35495e"/>
    <path id="Shape-2" data-name="Shape" d="M301.568,91.993a14.324,14.324,0,0,1-11.388,10.743L64.432,142.557a50.213,50.213,0,0,1-58.8-47.27A51.144,51.144,0,0,1,45.811,44.15l63.241,17.762h-.072L52.042,72.01a21.522,21.522,0,0,0-16.329,29.006A22.131,22.131,0,0,0,60.35,114.195L232.884,83.756Z" transform="translate(34.199 272.015)" fill="#2c3e50"/>
    <path id="Shape-3" data-name="Shape" d="M84.35,46.63l-56.938,10.1A21.522,21.522,0,0,0,11.082,85.735,22.131,22.131,0,0,0,35.72,98.913L208.254,68.474Z" transform="translate(58.83 287.297)" fill="#f9eab0"/>
    <path id="Shape-4" data-name="Shape" d="M12.826,237.533l39.8-225.705A14.424,14.424,0,0,1,69.22.211l224.008,39.5a51.3,51.3,0,0,1,43.08,51.818,51.221,51.221,0,0,1-.716,6.56l-39.8,225.705Z" transform="translate(78.615 0)" fill="#00bcd4"/>
    <path id="Shape-5" data-name="Shape" d="M190.781,47.323a7.4,7.4,0,0,1-1.253-.107L27.3,18.61A7.162,7.162,0,0,1,29.792,4.537L192.012,33.106a7.162,7.162,0,0,1-1.232,14.217Z" transform="translate(134.23 27.653)" fill="#3f5c6c"/>
    <path id="Shape-6" data-name="Shape" d="M137.673,43.028a6.8,6.8,0,0,1-1.253-.115L30.621,24.285a7.162,7.162,0,0,1,2.485-14.1L138.912,28.8a7.162,7.162,0,0,1-1.239,14.224Z" transform="translate(152.902 62.214)" fill="#3f5c6c"/>
    <rect id="Rectangle-path" width="164.727" height="85.945" rx="1" transform="matrix(0.985, 0.174, -0.174, 0.985, 150.326, 109.815)" fill="#ecf0f1"/>
    <path id="Shape-7" data-name="Shape" d="M140.377,58.133a47.576,47.576,0,0,1-.716,6.589L99.839,290.4,44.62,273.568,76.634,92.081l7.592-42.829L91.961,5.42l5.372.931a51.309,51.309,0,0,1,43.044,51.782Z" transform="translate(274.532 33.359)" fill="#008ba3"/>
    <path id="Shape-8" data-name="Shape" d="M264.341,71.2,40.312,31.735a14.808,14.808,0,0,0-2.507-.215A14.324,14.324,0,0,0,35.37,59.953L261.047,99.7A21.579,21.579,0,0,1,277.3,128.781a22,22,0,0,1-24.566,13.107L27.922,102.281a14.809,14.809,0,0,0-2.507-.215A14.324,14.324,0,0,0,22.908,130.5l225.748,39.749a50.185,50.185,0,0,0,58.8-47.2A51.4,51.4,0,0,0,264.341,71.2Z" transform="translate(67.702 194.188)" fill="#006064"/>
    <path id="Shape-9" data-name="Shape" d="M262.793,104.317a22,22,0,0,1-24.566,13.107L13.41,77.818,20.859,35.49,246.535,75.239a21.579,21.579,0,0,1,16.258,29.078Z" transform="translate(82.214 218.652)" fill="#f9eab0"/>
  </g>
</svg>
